<svg width="82" height="17" viewBox="0 0 82 17" fill="none" xmlns="http://www.w3.org/2000/svg">
<path d="M0.65 0.599999H6.238C7.646 0.599999 8.82667 1.07667 9.78 2.03C10.7333 2.98333 11.21 4.15667 11.21 5.55C11.21 6.94333 10.7333 8.11667 9.78 9.07C8.82667 10.0233 7.646 10.5 6.238 10.5H2.696V16H0.65V0.599999ZM2.696 8.586H6.238C7.10333 8.586 7.80733 8.3 8.35 7.728C8.90733 7.12667 9.186 6.40067 9.186 5.55C9.186 4.67 8.90733 3.944 8.35 3.372C7.79267 2.8 7.08867 2.514 6.238 2.514H2.696V8.586ZM21.0186 10.83V5H22.9326V16H21.0186V14.416C20.2559 15.6627 19.0679 16.286 17.4546 16.286C16.1639 16.286 15.1299 15.8827 14.3526 15.076C13.5752 14.2547 13.1866 13.1473 13.1866 11.754V5H15.1006V11.644C15.1006 12.524 15.3426 13.2133 15.8266 13.712C16.3106 14.2107 16.9779 14.46 17.8286 14.46C18.8112 14.46 19.5886 14.1593 20.1606 13.558C20.7326 12.942 21.0186 12.0327 21.0186 10.83ZM27.7605 5V6.848C28.3912 5.484 29.5352 4.802 31.1925 4.802V6.804C30.2539 6.76 29.4472 7.00933 28.7725 7.552C28.0979 8.09467 27.7605 8.96733 27.7605 10.17V16H25.8465V5H27.7605ZM34.9793 5V6.848C35.6099 5.484 36.7539 4.802 38.4113 4.802V6.804C37.4726 6.76 36.6659 7.00933 35.9913 7.552C35.3166 8.09467 34.9793 8.96733 34.9793 10.17V16H33.0653V5H34.9793ZM50.822 13.382L53.242 5H55.244L51.834 16H49.876L47.302 7.86L44.728 16H42.77L39.36 5H41.362L43.782 13.36L46.378 5H48.226L50.822 13.382ZM67.344 11.38H58.126C58.3167 12.348 58.764 13.1107 59.468 13.668C60.172 14.2107 61.052 14.482 62.108 14.482C63.56 14.482 64.616 13.9467 65.276 12.876L66.904 13.8C65.8187 15.4573 64.2054 16.286 62.064 16.286C60.3334 16.286 58.9107 15.7433 57.796 14.658C56.7107 13.5433 56.168 12.1573 56.168 10.5C56.168 8.828 56.7034 7.44933 57.774 6.364C58.8447 5.264 60.2307 4.714 61.932 4.714C63.5454 4.714 64.858 5.286 65.87 6.43C66.8967 7.54467 67.41 8.90867 67.41 10.522C67.41 10.8007 67.388 11.0867 67.344 11.38ZM61.932 6.518C60.92 6.518 60.0694 6.804 59.38 7.376C58.7054 7.948 58.2874 8.72533 58.126 9.708H65.474C65.3127 8.696 64.9094 7.91133 64.264 7.354C63.6187 6.79667 62.8414 6.518 61.932 6.518ZM75.6822 4.714C77.2222 4.714 78.5349 5.27867 79.6202 6.408C80.7055 7.53733 81.2482 8.90133 81.2482 10.5C81.2482 12.1133 80.7055 13.4847 79.6202 14.614C78.5495 15.7287 77.2369 16.286 75.6822 16.286C73.8635 16.286 72.4775 15.56 71.5242 14.108V16H69.6102V0.599999H71.5242V6.892C72.4775 5.44 73.8635 4.714 75.6822 4.714ZM75.4402 14.438C76.5402 14.438 77.4642 14.064 78.2122 13.316C78.9602 12.5387 79.3342 11.6 79.3342 10.5C79.3342 9.38533 78.9602 8.454 78.2122 7.706C77.4642 6.94333 76.5402 6.562 75.4402 6.562C74.3255 6.562 73.3942 6.94333 72.6462 7.706C71.8982 8.454 71.5242 9.38533 71.5242 10.5C71.5242 11.6 71.8982 12.5387 72.6462 13.316C73.3942 14.064 74.3255 14.438 75.4402 14.438Z" fill="#0B1332"/>
</svg>
