<svg width="250" height="250" viewBox="0 0 250 250" fill="none" xmlns="http://www.w3.org/2000/svg">
<path d="M133.983 222.419C124.594 217.312 116.366 209.597 105.962 207.154C97.9039 205.262 89.4639 206.783 81.4064 208.68C73.3499 210.576 65.2269 212.864 56.9584 212.49C48.6896 212.116 40.031 208.524 35.9831 201.304C31.1749 192.727 34.1245 181.895 38.5751 173.127C43.0259 164.36 48.9813 155.973 50.2009 146.216C51.6129 134.916 46.3714 123.844 40.0716 114.358C33.7716 104.871 26.2003 96.0536 21.9567 85.4856C18.5819 77.0821 17.9972 66.2356 24.6884 60.1336C29.5099 55.7366 36.654 55.1476 43.1679 55.5366C49.6817 55.9246 56.3619 57.0406 62.6289 55.2236C70.1084 53.0546 75.8144 47.0351 80.4469 40.7746C85.0789 34.5151 89.1164 27.6721 95.0169 22.5896C100.917 17.5071 109.378 14.4471 116.594 17.3771C123.795 20.3016 127.588 28.0206 133.019 33.5801C141.947 42.7176 155.359 45.8881 168.113 46.6211C172.847 46.8936 177.601 46.8891 182.353 46.8851C190.403 46.8781 198.444 46.8716 206.365 48.2066C213.892 49.4756 221.702 52.3021 226.161 58.4981C231.127 65.3991 230.725 74.9981 227.584 82.8986C224.443 90.7991 218.955 97.4911 214.01 104.407C209.066 111.323 204.478 118.914 203.603 127.371C201.624 146.493 218.578 162.197 223.045 180.895C224.658 187.645 224.217 195.664 219.06 200.308C216.188 202.893 212.33 204.004 208.805 205.587C203.724 207.868 199.173 211.286 195.509 215.474C192.798 218.573 190.94 222.197 187.253 224.241C177.447 229.677 163.992 230.462 153.148 228.807C146.458 227.786 139.931 225.654 133.983 222.419Z" fill="#E1E7FF"/>
<path d="M157.604 211.062C157.604 211.062 164.075 221.262 163.328 235.832C163.328 235.832 128.735 238.989 106.088 234.618C102.193 234.132 104.606 212.229 106.218 207.153C107.83 202.078 154.618 200.135 157.604 211.062Z" fill="#1B1623"/>
<path d="M161.52 67.6699C167.909 70.0754 172.14 77.2219 171.178 83.9799C170.836 86.3819 169.924 88.6639 169.409 91.0349C168.894 93.4054 168.816 96.0204 170.041 98.1144C172.558 102.416 179.565 103.056 180.987 107.833C181.827 110.657 180.211 113.591 178.475 115.972C176.738 118.352 174.726 120.831 174.654 123.777C174.575 126.981 176.937 129.843 179.781 131.32C182.626 132.797 185.898 133.164 189.085 133.505C180.687 142.178 113.046 141.396 99.4233 132.53C102.162 132.57 104.965 132.599 107.553 131.702C110.141 130.806 112.512 128.781 113.037 126.093C113.671 122.845 111.555 119.356 112.77 116.277C113.726 113.852 116.418 112.614 118.953 112.002C121.487 111.39 124.202 111.125 126.367 109.673C128.719 108.095 130.035 105.339 130.654 102.575C131.271 99.8109 131.299 96.9524 131.677 94.1454C133.359 81.6764 146.571 62.0409 161.52 67.6699Z" fill="#1B1623"/>
<path d="M73.532 141.114C71.4875 139.074 68.223 137.181 66.084 136.279C63.818 135.321 63.798 134.705 65.949 134.885C67.84 135.075 69.4075 135.756 69.595 135.508C69.6855 135.39 68.4615 134.798 66.6025 134.138C64.6905 133.462 63.283 133.038 63.502 132.373C63.769 131.612 69.231 132.774 70.4685 133.561C71.8315 134.152 66.943 131.223 64.975 130.715C62.853 130.024 63.5115 129.052 66.463 129.619C69.3905 130.245 71.4965 131.571 72.256 131.707C71.9285 131.21 71.439 130.604 68.8485 129.121C66.8805 128.106 67.6795 127.391 69.96 128.065C72.7185 128.861 75.515 131.764 76.2715 131.474C76.6855 130.981 75.958 130.224 75.5135 128.032C75.047 125.871 77.0855 127.998 78.1895 130.182C79.368 132.395 80.9395 134.849 81.478 137.031C82.22 139.954 82.0795 142.318 80.558 143.824C78.927 145.424 77.5985 145.292 73.532 141.114Z" fill="#DC716F"/>
<path d="M77.428 138.022C77.417 138.022 77.4045 138.019 77.3925 138.011C77.0425 137.791 76.737 137.494 76.3965 137.259C76.0515 137.019 75.677 136.822 75.2845 136.674C74.5765 136.406 73.85 136.313 73.1035 136.313C73.003 136.313 72.9015 136.315 72.8 136.318C72.799 136.318 72.798 136.318 72.797 136.318C72.704 136.318 72.6875 136.175 72.778 136.153C73.0785 136.077 73.3895 136.042 73.703 136.042C74.2845 136.042 74.8715 136.162 75.407 136.362C75.8275 136.518 76.2305 136.725 76.6 136.98C76.9425 137.217 77.31 137.529 77.4885 137.914C77.5105 137.963 77.476 138.022 77.428 138.022Z" fill="#B1494B"/>
<path d="M118.988 142.698C122.84 146.083 119.848 151.516 114.694 159.428C110.598 165.716 97.952 183.272 88.12 181.868C80.6695 180.803 71.838 143.992 72.765 143.05C73.6925 142.107 81.561 139.247 82.84 140.395C84.118 141.542 91.2805 161.307 91.3135 165.688C93.699 162.061 98.4775 156.677 103.934 150.072C107.776 145.42 115.136 139.311 118.988 142.698Z" fill="#2E56E4"/>
<path d="M105.024 170.01C105.533 174.033 109.705 177.651 110.887 179.688C112.555 182.563 112.771 186.052 111.345 189.054C109.05 193.886 103.363 208.368 104.834 210.054C118.539 225.769 156.073 216.815 159.828 214.436C162.766 212.577 146.855 190.832 146.855 190.832C147.689 174.815 157.724 156.287 156.01 149.048C155.324 146.152 152.534 142.118 148.776 140.856C147.706 140.501 146.62 140.174 145.531 139.883C143.319 139.285 141.104 138.825 139.114 138.504C137.555 138.263 136.123 138.095 134.926 138.015C133.387 137.914 131.541 137.952 129.576 138.114C127.525 138.284 125.34 138.584 123.256 139.008C122.938 139.074 122.621 139.14 122.31 139.214C121.045 139.488 119.835 139.816 118.725 140.18C118.599 140.215 118.48 140.251 118.361 140.294C117.98 140.422 117.614 140.558 117.27 140.696C115.946 141.213 114.6 141.589 114.064 142.437C108.604 151.088 103.916 161.269 105.024 170.01Z" fill="#466EFA"/>
<path d="M128.212 143.585C131.009 143.723 136.273 141.894 137.739 140.541C139.205 139.188 136.724 137.948 132.102 138.117C127.479 138.286 124.153 139.977 124.153 141.725C124.153 143.473 126.238 143.488 128.212 143.585Z" fill="#D379C3"/>
<path d="M99.0613 192.975C99.0613 192.975 100.048 194.797 100.484 194.724C101.066 194.628 101.13 192.617 101.023 192.471C100.864 192.256 98.0263 177.864 97.1333 173.323C96.9868 172.578 96.2528 172.11 95.5143 172.283C94.7928 172.452 94.3463 173.176 94.5183 173.897L99.0613 192.975Z" fill="#211A29"/>
<path d="M107.025 177.683L114.972 178.973L112.823 187.88L105.418 186.224L107.025 177.683Z" fill="#DC716F"/>
<path d="M97.2008 177.094C95.8458 177.427 92.6948 179.302 91.9528 181.055C91.1703 182.906 93.3803 184.256 93.9723 184.542C93.1808 186.499 95.6598 186.89 95.6598 186.89C95.6163 188.788 97.9288 188.483 97.9608 188.122C98.1968 189.305 100.3 189.432 100.973 188.942C101.443 188.6 101.678 188.118 101.819 187.555C101.812 187.585 107.21 187.571 108.106 185.244C109.002 182.915 109.436 178.815 108.024 178.024C106.612 177.233 98.5563 176.761 97.2008 177.094Z" fill="#DC716F"/>
<path d="M100.037 188.624L100.002 188.557C100.179 188.39 100.339 188.215 100.451 187.989C100.505 187.879 100.556 187.767 100.59 187.646C100.613 187.562 100.635 187.478 100.654 187.393C100.664 187.311 100.732 187.289 100.804 187.289C100.872 187.289 100.944 187.309 100.974 187.315C101.072 187.338 101.172 187.352 101.27 187.358C101.371 187.365 101.54 187.436 101.588 187.442C101.635 187.448 101.649 187.514 101.616 187.54C101.587 187.563 101.498 187.57 101.41 187.57C101.363 187.57 101.317 187.568 101.28 187.566C101.183 187.559 101.087 187.541 100.99 187.52L101.063 187.618C101.12 187.703 101.169 187.794 101.208 187.889C101.248 187.986 101.265 188.096 101.275 188.198C101.277 188.223 101.262 188.236 101.245 188.236C101.229 188.236 101.21 188.224 101.203 188.203C101.172 188.111 101.128 188.028 101.086 187.941C101.047 187.858 101 187.779 100.945 187.707C100.897 187.644 100.842 187.588 100.788 187.531C100.784 187.6 100.776 187.668 100.76 187.734C100.726 187.87 100.68 188.001 100.611 188.117C100.475 188.343 100.281 188.544 100.037 188.624Z" fill="#B1494B"/>
<path d="M94.0756 184.352C94.0401 184.352 94.0001 184.311 94.0161 184.268C94.2071 183.738 94.4446 183.242 94.6971 182.763L94.6706 182.757L94.6191 182.702L94.5661 182.629L94.5316 182.569C94.4886 182.586 94.4486 182.609 94.4026 182.621C94.2751 182.655 94.1276 182.685 93.9801 182.685C93.8561 182.685 93.7326 182.663 93.6221 182.604L93.6271 182.52C93.7441 182.494 93.8681 182.494 93.9886 182.49C94.1081 182.486 94.2246 182.469 94.3376 182.44C94.3896 182.428 94.4376 182.407 94.4881 182.391V182.386L94.5891 182.353L94.5976 182.355C94.7306 182.305 94.8586 182.245 94.9731 182.164L95.0091 182.172C95.0541 182.095 95.0906 182.014 95.1371 181.938C95.3456 181.599 95.5671 181.274 95.8001 180.963C96.0231 180.664 96.2476 180.319 96.5411 180.097C96.5526 180.089 96.5651 180.085 96.5781 180.085C96.6371 180.085 96.7026 180.163 96.6696 180.216C96.4736 180.531 96.1781 180.797 95.9466 181.098C95.7041 181.412 95.4751 181.743 95.2591 182.087C94.8261 182.779 94.4476 183.532 94.1151 184.323C94.1066 184.343 94.0916 184.352 94.0756 184.352Z" fill="#B1494B"/>
<path d="M95.6692 186.77C95.6387 186.77 95.6052 186.74 95.6147 186.701C95.8132 185.839 96.1122 185.02 96.4727 184.226C96.8207 183.458 97.2092 182.697 97.7247 182.041C97.7347 182.028 97.7477 182.023 97.7602 182.023C97.7927 182.023 97.8242 182.059 97.8032 182.097C97.3847 182.849 96.9372 183.578 96.5822 184.368C96.2387 185.131 95.9627 185.932 95.7112 186.737C95.7037 186.76 95.6867 186.77 95.6692 186.77Z" fill="#B1494B"/>
<path d="M97.9698 187.926C97.8783 187.344 97.9098 186.754 98.0133 186.173C98.0643 185.887 98.1323 185.601 98.2128 185.322C98.2543 185.178 98.2993 185.035 98.3488 184.893C98.3753 184.817 98.4103 184.737 98.4553 184.664L98.4323 184.551L98.4228 184.49L98.4198 184.432L98.4173 184.371L98.4233 184.325L98.4368 184.301L98.5008 184.299L98.5128 184.314L98.5203 184.312L98.5663 184.346L98.5808 184.395L98.5913 184.459L98.6098 184.573L98.6293 184.598C98.6478 184.721 98.5923 184.853 98.5533 184.968C98.5078 185.101 98.4653 185.236 98.4268 185.372C98.3468 185.651 98.2843 185.934 98.2328 186.22C98.1308 186.784 98.0823 187.354 98.0258 187.924L97.9698 187.926Z" fill="#B1494B"/>
<path d="M147.693 142.721C153.63 142.542 157.284 148.629 156.866 153.479C156.447 158.328 154.006 183.3 149.048 191.906C145.565 197.951 109.878 189.187 109.217 188.042C108.555 186.898 110.037 178.792 111.483 177.865C112.929 176.937 131.788 179.592 136.02 180.725C137.036 175.366 138.912 162.774 140.347 154.328C141.517 147.441 141.715 142.901 147.693 142.721Z" fill="#2E56E4"/>
<path d="M126.323 140.403C126.323 140.403 124.975 142.087 128.564 142.233C132.154 142.379 135.837 139.732 135.837 139.732L134.955 127.213L125.441 127.883L126.323 140.403Z" fill="#DC716F"/>
<path d="M125.989 135.664L125.791 132.854C125.79 132.854 125.791 132.854 125.791 132.854L125.989 135.664Z" fill="#160F17"/>
<path d="M127.244 135.71C126.824 135.71 126.406 135.692 125.989 135.662L125.791 132.852C126.488 132.9 127.169 132.923 127.833 132.923C128.378 132.923 128.912 132.907 129.435 132.876C131.55 132.752 133.489 132.38 135.278 131.797L135.399 133.514C133.247 134.583 130.949 135.398 128.555 135.645C128.115 135.691 127.678 135.71 127.244 135.71Z" fill="#BA5456"/>
<path d="M107.713 82.4172C110.197 77.9142 115.114 74.8537 120.251 74.6112C121.007 74.5757 121.796 74.6037 122.471 74.9452C123.147 75.2862 123.678 76.0162 123.571 76.7657C123.51 77.1942 123.258 77.5672 123.014 77.9237C120.354 81.8027 117.694 85.6812 115.034 89.5597C113.6 91.6507 109.461 99.2337 106.852 94.7817C104.804 91.2882 105.874 85.7492 107.713 82.4172Z" fill="#211A29"/>
<path d="M105.059 106.652C104.006 112.333 104.315 117.717 106.488 122.107C108.924 127.071 113.723 130.78 121.562 132.292C121.953 132.37 122.353 132.438 122.753 132.506C129.435 133.563 134.675 132.553 138.938 130.211L138.946 130.207C145.718 126.453 150.02 119.305 153.683 111.651C154.046 110.888 154.402 110.13 154.753 109.365C154.813 109.224 154.877 109.09 154.944 108.945L154.946 108.939C159.238 99.5435 157.796 89.0635 151.393 82.2575C148.584 79.2785 144.831 76.9985 140.198 75.8325C122.584 71.4085 113.3 80.3585 106.866 99.957C106.078 102.207 105.461 104.45 105.059 106.652Z" fill="#DC716F"/>
<path d="M135.277 131.799V131.797C136.574 131.374 137.791 130.841 138.938 130.211L138.946 130.207L138.937 130.212C137.791 130.842 136.574 131.376 135.277 131.799Z" fill="#1B1421"/>
<path d="M129.432 132.877C131.548 132.752 133.487 132.379 135.275 131.796V131.798C133.487 132.381 131.548 132.753 129.432 132.877Z" fill="#B84E52"/>
<path d="M127.842 132.925C126.245 132.924 124.551 132.789 122.754 132.504C122.349 132.438 121.952 132.368 121.563 132.292L121.518 132.225C118.762 128.152 120.128 122.329 124.591 119.201C126.438 117.906 128.526 117.28 130.535 117.28C133.371 117.28 136.05 118.529 137.664 120.906C139.431 123.505 140.125 127.227 138.945 130.208L138.938 130.212C137.791 130.842 136.574 131.375 135.277 131.798C133.488 132.381 131.549 132.754 129.434 132.878C128.914 132.909 128.384 132.925 127.842 132.925Z" fill="#DA696A"/>
<path d="M106.489 122.107C106.234 121.592 106.005 121.064 105.801 120.523C106.005 121.064 106.234 121.592 106.489 122.107C106.489 122.107 106.489 122.107 106.489 122.107ZM104.962 117.624C104.257 114.251 104.34 110.52 105.055 106.648C105.056 106.649 105.058 106.649 105.059 106.65C105.059 106.651 105.059 106.651 105.059 106.652C104.342 110.521 104.257 114.251 104.962 117.624Z" fill="#E1D1EC"/>
<path d="M106.488 122.107C106.234 121.592 106.005 121.064 105.8 120.523C105.449 119.592 105.17 118.624 104.961 117.624C104.257 114.251 104.342 110.521 105.059 106.652C105.059 106.651 105.059 106.651 105.059 106.65C107.073 107.683 108.716 110.355 109.141 113.682C109.596 117.31 108.462 120.634 106.489 122.107" fill="#DA696A"/>
<path d="M128.845 109.527C128.451 110.658 128.806 111.809 129.637 112.099C130.468 112.389 131.462 111.707 131.856 110.576C132.25 109.445 131.896 108.294 131.064 108.004C130.233 107.714 129.239 108.396 128.845 109.527Z" fill="#211A29"/>
<path d="M110.449 103.114C110.081 104.17 110.412 105.246 111.189 105.517C111.966 105.788 112.894 105.151 113.262 104.094C113.631 103.037 113.3 101.962 112.522 101.691C111.746 101.42 110.817 102.057 110.449 103.114Z" fill="#211A29"/>
<path d="M117.108 114.431C119.065 114.904 120.645 112.774 122.159 114.585C123.365 116.028 121.483 118.809 116.687 118.183C112.032 117.577 112.039 114.342 113.155 113.561C114.272 112.781 114.786 113.869 117.108 114.431Z" fill="white"/>
<path d="M135.728 101.241C135.581 99.956 134.884 98.5255 133.788 97.763C132.465 96.8425 130.55 96.973 129.325 97.9595C129.178 98.0775 129.029 98.2614 129.109 98.4319C129.259 98.7529 129.921 98.6144 130.187 98.6059C131.092 98.5784 132.051 98.5525 132.851 99.05C133.316 99.3395 133.665 99.7745 134.005 100.2C134.41 100.709 134.784 101.234 135.224 101.717C135.307 101.809 135.413 101.907 135.536 101.889C135.708 101.865 135.755 101.645 135.747 101.475C135.743 101.399 135.737 101.321 135.728 101.241Z" fill="#211A29"/>
<path d="M111.314 93.558C111.701 93.061 112.309 92.611 112.848 92.291C113.353 91.9915 113.937 91.7935 114.522 91.838C115.532 91.9135 116.363 92.693 116.746 93.5945C116.851 93.8415 116.996 94.15 116.869 94.418C116.829 94.501 116.744 94.569 116.653 94.5585C116.593 94.552 116.542 94.5135 116.494 94.476C116.067 94.145 115.721 93.846 115.244 93.578C114.535 93.1795 114.002 93.1405 113.24 93.409C112.59 93.6385 111.981 94.0045 111.295 94.1265C111.206 94.142 111.088 94.139 111.058 94.0535C111.041 94.0035 111.064 93.95 111.089 93.9035C111.155 93.78 111.231 93.665 111.314 93.558Z" fill="#211A29"/>
<path d="M115.348 112.425C115.305 112.425 115.262 112.41 115.23 112.377C114.959 112.099 114.788 111.685 114.613 111.342C114.43 110.983 114.246 110.624 114.071 110.261C113.9 109.907 113.716 109.555 113.559 109.194C113.425 108.884 113.453 108.483 113.83 108.365C113.902 108.343 113.973 108.335 114.045 108.335C114.126 108.335 114.207 108.344 114.29 108.351C114.499 108.369 114.709 108.387 114.919 108.405C115.338 108.44 115.757 108.474 116.176 108.514C116.514 108.546 116.852 108.577 117.189 108.61C117.376 108.217 117.616 107.837 117.791 107.456C118.074 106.837 118.316 106.206 118.501 105.551C118.685 104.895 118.816 104.224 118.906 103.549C118.99 102.923 118.955 102.222 119.127 101.614C119.15 101.532 119.217 101.492 119.285 101.492C119.352 101.492 119.42 101.531 119.448 101.607C119.68 102.241 119.592 103.043 119.519 103.701C119.442 104.403 119.295 105.094 119.087 105.769C118.886 106.421 118.637 107.068 118.329 107.677C118.167 107.998 117.985 108.354 117.765 108.676C118.036 108.715 118.307 108.777 118.534 108.916C118.693 109.014 118.659 109.236 118.491 109.298C118.299 109.37 118.083 109.392 117.869 109.392C117.727 109.392 117.586 109.382 117.453 109.371C117.348 109.362 117.243 109.35 117.137 109.34L117.008 109.328C116.797 109.306 116.586 109.286 116.375 109.266C115.686 109.198 114.997 109.12 114.308 109.045L114.233 109.041C114.29 109.158 114.337 109.291 114.384 109.394C114.525 109.706 114.669 110.016 114.805 110.33C114.941 110.644 115.074 110.96 115.207 111.276C115.334 111.58 115.497 111.915 115.53 112.246C115.541 112.353 115.443 112.425 115.348 112.425Z" fill="#B1494B"/>
<path d="M136.349 90.1108C137.589 93.3983 137.869 97.5703 138.321 101.195C140.834 116.377 147.544 114.753 152.106 113.128C156.204 111.669 158.569 110.209 154.604 120.927C175.29 102.388 166.961 81.1358 149.092 74.3028C132.756 68.0563 118.563 72.6803 117.202 78.6483C117.501 79.6723 118.394 79.5773 120.087 79.7753C127.941 79.7558 133.649 83.6658 136.349 90.1108Z" fill="#211A29"/>
<path d="M146.997 120.426C147.211 122.781 150.561 124.439 153.908 123.196C157.255 121.953 160.798 116.569 159.467 112.832C158.136 109.095 152.723 109.27 149.852 112.615C147.684 115.14 146.83 118.589 146.997 120.426Z" fill="#DC716F"/>
<path d="M150.583 118.685C150.429 118.685 150.266 118.541 150.307 118.359C150.642 116.868 151.646 115.562 152.878 114.685C153.487 114.252 154.182 113.923 154.896 113.703C155.309 113.575 155.809 113.432 156.282 113.432C156.55 113.432 156.81 113.478 157.04 113.599C157.186 113.677 157.187 113.897 157.046 113.98C156.485 114.308 155.746 114.301 155.128 114.494C154.866 114.575 154.616 114.683 154.369 114.796C154.418 114.855 154.464 114.917 154.51 114.98C154.611 115.118 154.695 115.265 154.774 115.416C154.937 115.728 155.082 116.055 155.188 116.39C155.398 117.055 155.544 117.789 155.266 118.454C155.243 118.511 155.198 118.534 155.149 118.534C155.08 118.534 155.004 118.486 154.978 118.422C154.742 117.834 154.695 117.194 154.505 116.592C154.411 116.295 154.304 116.003 154.167 115.723C154.099 115.585 154.026 115.451 153.956 115.314C153.918 115.238 153.869 115.16 153.833 115.08C153.67 115.174 153.502 115.259 153.346 115.366C152.189 116.163 151.394 117.299 150.789 118.55C150.743 118.645 150.664 118.685 150.583 118.685Z" fill="#B1494B"/>
<path d="M148.834 126.655C148.955 125.032 150.106 123.794 151.404 123.891C152.701 123.987 153.655 125.382 153.534 127.006C153.413 128.629 152.262 129.867 150.965 129.77C149.667 129.674 148.713 128.279 148.834 126.655ZM147.579 126.562C147.393 129.058 148.856 131.202 150.847 131.35C152.838 131.498 154.603 129.596 154.789 127.1C154.975 124.603 153.512 122.459 151.521 122.311C149.53 122.163 147.765 124.066 147.579 126.562Z" fill="#F89D23"/>
<path d="M138.9 54.4784L135.104 29.4034L112.906 12.8609C111.525 11.8309 109.565 12.1479 108.578 13.5599L93.0583 35.7684L96.8544 60.8439C97.1619 62.8744 99.0574 64.2719 101.088 63.9644L135.779 58.7124C137.81 58.4054 139.207 56.5094 138.9 54.4784Z" fill="#0428A5"/>
<path d="M134.257 57.4424L99.5664 62.6939C97.5359 63.0014 95.6399 61.6044 95.3329 59.5734L91.5364 34.4984L133.582 28.1334L137.378 53.2084C137.685 55.2394 136.288 57.1349 134.257 57.4424Z" fill="#0428A5"/>
<path d="M107.057 12.2905L91.5364 34.499L133.582 28.134L111.385 11.5915C110.003 10.5615 108.044 10.878 107.057 12.2905Z" fill="#2E56E4"/>
<path d="M129.146 26.6053L94.4912 31.8513L98.6842 59.5488L133.339 54.3028L129.146 26.6053Z" fill="#E5E8C7"/>
<path d="M134.257 57.4424L99.5664 62.6939C97.5359 63.0014 95.6399 61.6044 95.3329 59.5734L91.5364 34.4984L114.319 47.5764L133.582 28.1334L137.378 53.2084C137.685 55.2394 136.288 57.1349 134.257 57.4424Z" fill="#2E56E4"/>
<path d="M139.601 26.3024C140.101 29.6054 137.829 32.6888 134.525 33.1888C131.222 33.6888 128.138 31.4163 127.638 28.1133C127.138 24.8093 129.411 21.7264 132.714 21.2264C136.018 20.7264 139.101 22.9989 139.601 26.3024Z" fill="#F87C23"/>
<path d="M137.717 24.2387C137.678 24.0967 137.515 23.9437 137.356 23.9637C136.998 24.0092 136.859 24.2042 136.664 24.4892L136.189 25.1838C135.849 25.6803 135.515 26.1798 135.181 26.6788C134.846 27.1778 134.512 27.6772 134.177 28.1762C134.022 28.4092 133.865 28.6417 133.709 28.8747C133.624 29.0027 133.512 29.2428 133.385 29.3983L133.304 29.3187C133.22 29.2352 133.137 29.1512 133.054 29.0677C132.873 28.8867 132.688 28.7112 132.5 28.5372C132.221 28.2772 131.772 27.7218 131.355 27.7538C131.25 27.7623 131.192 27.8283 131.179 27.9298C131.13 28.3153 131.614 28.7597 131.838 29.0322C132.135 29.3912 132.434 29.7557 132.76 30.0892C133.068 30.4042 133.523 30.5548 133.894 30.2453C134.222 29.9728 134.444 29.5177 134.683 29.1657C135.224 28.3702 135.764 27.5747 136.305 26.7802C136.575 26.3822 136.844 25.9838 137.111 25.5838C137.361 25.2078 137.848 24.7202 137.717 24.2387Z" fill="white"/>
<path d="M217.116 99.2046L182.702 91.9781C181.051 91.6316 179.994 90.0126 180.341 88.3621L190.013 42.2991C190.36 40.6486 191.979 39.5916 193.63 39.9381L228.043 47.1646C229.694 47.5116 230.751 49.1306 230.405 50.7811L220.732 96.8441C220.385 98.4946 218.766 99.5516 217.116 99.2046Z" fill="#0428A5"/>
<path d="M215.562 98.2896L181.149 91.0631C179.498 90.7166 178.441 89.0975 178.787 87.4465L188.46 41.384C188.807 39.733 190.426 38.676 192.077 39.0225L226.491 46.249C228.141 46.596 229.199 48.215 228.852 49.8661L219.179 95.9286C218.832 97.5791 217.213 98.6366 215.562 98.2896Z" fill="#2E56E4"/>
<path d="M195.677 60.1665C195.4 61.486 194.106 62.3305 192.787 62.054C191.468 61.7765 190.623 60.4825 190.9 59.1635C191.177 57.845 192.471 57 193.79 57.277C195.109 57.554 195.954 58.8475 195.677 60.1665Z" fill="white"/>
<path d="M194.094 67.7004C193.817 69.0194 192.523 69.8644 191.204 69.5869C189.885 69.3099 189.04 68.0164 189.317 66.6974C189.594 65.3779 190.888 64.5334 192.207 64.8104C193.526 65.0874 194.371 66.3814 194.094 67.7004Z" fill="white"/>
<path d="M192.533 75.1351C192.256 76.4536 190.962 77.2986 189.643 77.0216C188.324 76.7446 187.479 75.4511 187.756 74.1321C188.033 72.8126 189.327 71.9681 190.646 72.2446C191.965 72.5221 192.81 73.8156 192.533 75.1351Z" fill="white"/>
<path d="M191.093 81.9999C190.815 83.3194 189.522 84.1639 188.202 83.8869C186.884 83.6099 186.039 82.3159 186.316 80.9969C186.593 79.6779 187.886 78.8329 189.205 79.1104C190.525 79.3874 191.369 80.6814 191.093 81.9999Z" fill="white"/>
<path d="M221.033 56.1572L193.225 50.3177L194.043 46.4232L221.851 52.2632L221.033 56.1572Z" fill="#211A29"/>
<path d="M217.538 65.5859L196.966 61.2659L197.369 59.3464L217.942 63.6664L217.538 65.5859Z" fill="#211A29"/>
<path d="M215.931 73.2412L195.359 68.9207L195.762 67.0012L216.334 71.3217L215.931 73.2412Z" fill="#211A29"/>
<path d="M214.448 80.2969L193.876 75.9769L194.279 74.0574L214.851 78.3774L214.448 80.2969Z" fill="#211A29"/>
<path d="M212.865 87.8467L192.293 83.5262L192.696 81.6072L213.268 85.9272L212.865 87.8467Z" fill="#211A29"/>
<path d="M197.654 56.9003C197.077 56.7358 196.495 56.9513 195.985 57.2273C195.433 57.5253 194.949 57.9483 194.508 58.3888C194.274 58.6208 194.049 58.8618 193.821 59.0993C193.608 59.3218 193.395 59.5918 193.144 59.7703L193.091 59.8023C193.073 59.7343 193.044 59.6623 193.025 59.6003C192.976 59.4493 192.926 59.2988 192.874 59.1483C192.762 58.8218 192.668 58.4213 192.453 58.1468C192.385 58.0618 192.223 58.0663 192.204 58.1938C192.15 58.5668 192.277 58.9803 192.348 59.3468C192.407 59.6503 192.422 60.0968 192.65 60.3288C193.225 60.9123 193.977 59.9538 194.351 59.5793C194.86 59.0693 195.36 58.5358 195.947 58.1138C196.497 57.7178 197.11 57.4798 197.704 57.1698C197.828 57.1048 197.765 56.9318 197.654 56.9003Z" fill="#0428A5"/>
<path d="M196.053 64.536C195.475 64.371 194.894 64.587 194.383 64.863C193.832 65.1615 193.348 65.584 192.906 66.024C192.673 66.257 192.447 66.497 192.22 66.735C192.007 66.9575 191.793 67.227 191.542 67.406L191.49 67.4375C191.471 67.3705 191.443 67.2985 191.423 67.236C191.375 67.0845 191.324 66.934 191.273 66.784C191.16 66.457 191.067 66.0575 190.851 65.7825C190.784 65.6975 190.621 65.7025 190.603 65.829C190.549 66.203 190.676 66.6165 190.747 66.982C190.805 67.286 190.82 67.7325 191.049 67.9645C191.623 68.548 192.376 67.5895 192.749 67.215C193.258 66.705 193.759 66.172 194.345 65.7495C194.896 65.353 195.509 65.1155 196.103 64.8055C196.227 64.741 196.164 64.5675 196.053 64.536Z" fill="#0428A5"/>
<path d="M73.874 75.882C67.887 72.829 29.7221 77.4625 26.8481 81.1105C23.9741 84.758 24.719 110.138 30.977 111.359C37.235 112.58 74.653 108.478 77.906 104.236C81.159 99.993 78.122 78.0485 73.874 75.882Z" fill="#0428A5"/>
<path d="M60.4995 104.477L76.4595 117.681L71.4475 102.887L60.4995 104.477Z" fill="#0428A5"/>
<path d="M72.2153 74.7114C66.2283 71.6585 28.0638 76.292 25.1898 79.9395C22.3156 83.5875 23.0607 108.967 29.3187 110.187C35.5765 111.409 72.9943 107.307 76.2473 103.064C79.5003 98.8225 76.4633 76.8774 72.2153 74.7114Z" fill="#2E56E4"/>
<path d="M58.8408 103.307L74.8013 116.51L69.7893 101.716L58.8408 103.307Z" fill="#2E56E4"/>
<path d="M40.8111 93.4629C41.0158 95.0179 39.9207 96.4449 38.3654 96.6494C36.8101 96.8534 35.3836 95.7589 35.1791 94.2034C34.9746 92.6479 36.0697 91.2219 37.625 91.0169C39.1803 90.8124 40.6068 91.9079 40.8111 93.4629Z" fill="white"/>
<path d="M52.9636 91.8662C53.1681 93.4212 52.0731 94.8482 50.5181 95.0527C48.9627 95.2567 47.5361 94.1617 47.3316 92.6062C47.1273 91.0512 48.2222 89.6247 49.7775 89.4202C51.3331 89.2157 52.7596 90.3107 52.9636 91.8662Z" fill="white"/>
<path d="M64.5258 90.3471C64.7298 91.9021 63.6353 93.3286 62.0798 93.5331C60.5243 93.7376 59.0978 92.6421 58.8938 91.0871C58.6888 89.5321 59.7838 88.1051 61.3393 87.9006C62.8948 87.6966 64.3213 88.7911 64.5258 90.3471Z" fill="white"/>
<path d="M177.962 165.421C177.962 179.345 189.249 190.632 203.173 190.632C217.097 190.632 228.384 179.345 228.384 165.421C228.384 151.497 217.097 140.21 203.173 140.21C189.249 140.21 177.962 151.497 177.962 165.421Z" fill="#0428A5"/>
<path d="M196.61 184.515C196.241 184.638 186.405 201.484 186.528 201.115C186.65 200.745 181.363 195.951 181.363 195.951L174.354 212.182L179.15 186.974L185.298 192.139L188.74 181.318L196.61 184.515Z" fill="#0428A5"/>
<path d="M177.185 163.475C177.185 177.398 188.472 188.686 202.396 188.686C216.32 188.686 227.607 177.398 227.607 163.475C227.607 149.551 216.32 138.264 202.396 138.264C188.472 138.264 177.185 149.551 177.185 163.475Z" fill="white"/>
<path d="M195.831 182.568C195.462 182.691 185.626 199.536 185.748 199.168C185.871 198.799 180.584 194.003 180.584 194.003L173.575 210.234L178.371 185.027L184.519 190.191L187.962 179.371L195.831 182.568Z" fill="white"/>
<path d="M215.932 173.525C215.941 172.411 214.781 170.74 214.202 169.834C213.502 168.738 212.665 167.728 211.714 166.841C210.941 166.12 209.997 165.445 208.94 165.484C207.763 165.528 206.802 166.449 206.152 167.431C205.602 168.261 205.185 169.191 204.983 170.162C203.496 171.513 200.577 170.508 197.712 166.943C195.34 163.993 194.53 161.332 195.85 160.187C196.771 160.29 197.717 160.205 198.618 159.978C199.741 159.696 200.908 159.106 201.333 158.029C201.715 157.062 201.397 155.966 200.981 155.014C200.469 153.843 199.806 152.738 199.018 151.731C198.366 150.898 197.196 149.277 196.16 148.921C194.355 148.302 191.754 150.863 190.655 152.772C189.555 154.681 185.126 159.278 193.281 169.825C201.725 180.744 209.396 177.818 211.363 177.008C213.189 176.256 215.919 175.203 215.932 173.525Z" fill="#2E56E4"/>
<path d="M75.7697 196.025L24.4217 204.549L17.9609 160.904L66.6207 151.487L75.7697 196.025Z" fill="#0428A5"/>
<path d="M73.8461 194.758L22.4988 203.281L16.0378 159.636L64.6981 150.22L73.8461 194.758Z" fill="white"/>
<path d="M33.0419 195.423L28.4902 196.297L25.2114 179.208L29.7632 178.334L33.0419 195.423Z" fill="#F87C23"/>
<path d="M43.0879 193.497L38.536 194.37L33.2207 166.668L37.7725 165.794L43.0879 193.497Z" fill="#2E56E4"/>
<path d="M53.6029 191.476L49.0509 192.35L44.1577 166.847L48.7095 165.973L53.6029 191.476Z" fill="#466EFA"/>
<path d="M64.735 189.343L60.1835 190.217L54.208 159.072L58.7595 158.199L64.735 189.343Z" fill="#0428A5"/>
</svg>
